<svg width="135" height="40" viewBox="0 0 135 40" fill="none" xmlns="http://www.w3.org/2000/svg">
<path fill-rule="evenodd" clip-rule="evenodd" d="M20.4821 0C15.6163 0.00755474 10.9116 1.74444 7.20822 4.90049C3.50481 8.05654 1.04381 12.4262 0.264714 17.2293C-0.514381 22.0323 0.439156 26.9558 2.95504 31.1207C5.47093 35.2856 9.38535 38.4206 13.9993 39.9659C15.0193 40.1551 15.4001 39.5204 15.4001 38.9787C15.4001 38.4902 15.3808 36.8752 15.3729 35.1615C9.66753 36.4014 8.45936 32.7418 8.45936 32.7418C7.53001 30.3742 6.18697 29.7406 6.18697 29.7406C4.32485 28.469 6.32637 28.4939 6.32637 28.4939C8.3857 28.6379 9.47033 30.6065 9.47033 30.6065C11.2984 33.7414 14.2679 32.8358 15.4375 32.3066C15.6222 30.9817 16.1526 30.0772 16.7397 29.565C12.1847 29.0459 7.39627 27.288 7.39627 19.4304C7.39627 17.1909 8.19756 15.3616 9.50999 13.9257C9.29692 13.4088 8.59537 11.3189 9.70833 8.4991C9.70833 8.4991 11.431 7.94829 15.3491 10.6004C18.7106 9.68156 22.257 9.68156 25.6185 10.6004C29.5331 7.95396 31.2559 8.50024 31.2559 8.50024C32.3722 11.3246 31.6707 13.41 31.4576 13.9268C32.7723 15.3628 33.5679 17.192 33.5679 19.4315C33.5679 27.3073 28.7704 29.0413 24.2041 29.5491C24.9396 30.186 25.5947 31.4339 25.5947 33.347C25.5947 36.0909 25.5709 38.2998 25.5709 38.9742C25.5709 39.5204 25.9404 40.1608 26.9797 39.9579C31.589 38.408 35.4977 35.271 38.0088 31.1066C40.5198 26.9422 41.4698 22.0212 40.6893 17.2213C39.9088 12.4215 37.4486 8.055 33.7474 4.90075C30.0463 1.74651 25.345 0.00965063 20.4821 0" fill="white"/>
<path fill-rule="evenodd" clip-rule="evenodd" d="M7.74193 29.4437C7.69772 29.5457 7.53679 29.5763 7.39058 29.506C7.24438 29.4358 7.15824 29.2997 7.20584 29.1977C7.25345 29.0957 7.41098 29.064 7.55945 29.1343C7.70792 29.2045 7.79406 29.3417 7.74193 29.4437Z" fill="white"/>
<path fill-rule="evenodd" clip-rule="evenodd" d="M8.57272 30.3742C8.47525 30.4649 8.28371 30.4229 8.15337 30.2801C8.02304 30.1373 7.9947 29.9458 8.09444 29.8528C8.19417 29.7599 8.38004 29.8052 8.51492 29.948C8.64979 30.0909 8.67472 30.2824 8.57272 30.3742Z" fill="white"/>
<path fill-rule="evenodd" clip-rule="evenodd" d="M9.38194 31.5506C9.25613 31.6379 9.051 31.5563 8.92859 31.3738C8.80619 31.1913 8.80279 30.9726 8.92859 30.8853C9.0544 30.7981 9.25727 30.8763 9.38194 31.0576C9.50661 31.2389 9.50661 31.4611 9.38194 31.5506Z" fill="white"/>
<path fill-rule="evenodd" clip-rule="evenodd" d="M10.4892 32.6919C10.3759 32.8154 10.1368 32.7826 9.96223 32.6137C9.78769 32.4448 9.73556 32.2136 9.8489 32.089C9.96223 31.9643 10.2036 32.0005 10.3804 32.1683C10.5572 32.336 10.6071 32.5695 10.4938 32.6919" fill="white"/>
<path fill-rule="evenodd" clip-rule="evenodd" d="M12.017 33.3549C11.9671 33.5159 11.737 33.5884 11.5047 33.5193C11.2724 33.4501 11.1205 33.2608 11.1647 33.0999C11.2089 32.939 11.4446 32.8619 11.6781 32.9344C11.9116 33.007 12.0612 33.1917 12.0181 33.3549" fill="white"/>
<path fill-rule="evenodd" clip-rule="evenodd" d="M13.6955 33.4773C13.6955 33.6462 13.504 33.7867 13.2603 33.7901C13.0166 33.7935 12.816 33.6587 12.8137 33.4921C12.8115 33.3255 13.0064 33.1827 13.2512 33.1781C13.496 33.1736 13.6955 33.3096 13.6955 33.4773Z" fill="white"/>
<path fill-rule="evenodd" clip-rule="evenodd" d="M15.2573 33.2076C15.2857 33.3731 15.1168 33.5476 14.8743 33.5873C14.6317 33.6269 14.4209 33.5295 14.3858 33.3606C14.3506 33.1917 14.5286 33.0206 14.7666 32.9787C15.0046 32.9367 15.2267 33.0353 15.2573 33.2053" fill="white"/>
<path d="M120.846 9.76507V11.6737H117.71V20.2419C117.71 20.8796 117.804 21.3564 117.992 21.6722C118.151 21.9627 118.409 22.1864 118.719 22.3024C119.021 22.4089 119.34 22.4626 119.661 22.461C119.865 22.4641 120.07 22.4497 120.273 22.418L120.605 22.3556L120.656 22.3454L121.109 24.373C120.899 24.4466 120.685 24.5057 120.467 24.5498C120.125 24.617 119.775 24.6474 119.426 24.6405C118.78 24.6389 118.143 24.4986 117.556 24.2291C116.948 23.9562 116.426 23.5233 116.045 22.9767C115.646 22.4161 115.447 21.7085 115.448 20.8539V11.6737H113.234V9.76507H115.453V6.25164H117.71V9.76507H120.846ZM110.698 7.317C110.488 7.32 110.28 7.28149 110.086 7.20368C109.891 7.12587 109.714 7.01031 109.565 6.86366C109.416 6.72574 109.297 6.55863 109.216 6.37278C109.135 6.18692 109.093 5.98633 109.093 5.78356C109.093 5.58079 109.135 5.3802 109.216 5.19434C109.297 5.00849 109.416 4.84138 109.565 4.70346C109.871 4.41448 110.277 4.25354 110.698 4.25354C111.119 4.25354 111.525 4.41448 111.831 4.70346C111.98 4.84138 112.098 5.00849 112.18 5.19434C112.261 5.3802 112.303 5.58079 112.303 5.78356C112.303 5.98633 112.261 6.18692 112.18 6.37278C112.098 6.55863 111.98 6.72574 111.831 6.86366C111.682 7.01031 111.504 7.12587 111.31 7.20368C111.115 7.28149 110.907 7.32 110.698 7.317ZM109.551 24.4535V9.76507H111.807V24.4535H109.551ZM106.899 4.87347V24.458H104.642V4.87347H106.899ZM101.991 4.87347V24.458H99.7337V4.87347H101.991ZM87.1092 15.9238H95.4757C95.4757 14.6809 95.1126 13.6495 94.3865 12.8297C93.6604 12.0099 92.6849 11.6004 91.4602 11.6011C90.5988 11.6011 89.853 11.8017 89.2229 12.2029C88.5988 12.5966 88.0851 13.1427 87.7302 13.7896C87.3679 14.4463 87.1558 15.1752 87.1092 15.9238ZM91.6891 24.764C90.2746 24.764 89.0555 24.4497 88.0317 23.8211C87.0051 23.1893 86.1845 22.2726 85.6698 21.1826C85.119 20.0492 84.8432 18.7311 84.8424 17.2283C84.8417 15.7254 85.1175 14.3979 85.6698 13.2456C86.1734 12.1454 86.9751 11.2082 87.9841 10.5403C88.9762 9.89276 90.1349 9.569 91.4602 9.569C92.2317 9.57014 92.9978 9.6996 93.7269 9.95208C94.4873 10.2146 95.1828 10.6366 95.7669 11.1897C96.379 11.7609 96.8667 12.5165 97.2301 13.4564C97.5935 14.3964 97.7749 15.5501 97.7741 16.9177V17.8743H87.1092C87.1605 19.4414 87.6052 20.6431 88.4431 21.4795C89.2811 22.316 90.363 22.7315 91.6891 22.7262C92.5754 22.7262 93.3374 22.5351 93.9751 22.1528C94.6228 21.757 95.1128 21.1484 95.3612 20.4312L97.5418 21.0432C97.1972 22.1524 96.5085 23.0481 95.4757 23.7304C94.4428 24.4127 93.1806 24.7557 91.6891 24.7595V24.764ZM83.7555 9.7696V11.6737H80.6229V20.2419C80.6229 20.8796 80.717 21.3564 80.9051 21.6722C81.0641 21.9624 81.3218 22.186 81.6316 22.3024C81.9341 22.4089 82.2527 22.4626 82.5734 22.461C82.7783 22.4642 82.9831 22.4498 83.1855 22.418L83.5175 22.3556L83.5685 22.3454L84.0219 24.373C83.8124 24.4466 83.598 24.5057 83.3804 24.5498C83.0374 24.6171 82.6883 24.6475 82.3388 24.6405C81.6932 24.6387 81.0555 24.4984 80.4688 24.2291C79.861 23.9562 79.3389 23.5233 78.958 22.9767C78.5598 22.4161 78.3607 21.7085 78.3607 20.8539V11.6737H76.1484V9.76507H78.3664V6.25164H80.6229V9.76507L83.7555 9.7696ZM68.3327 22.7704C69.2243 22.7704 69.9799 22.5951 70.5994 22.2446C71.1803 21.9271 71.6631 21.4568 71.9957 20.8845C72.3055 20.3533 72.469 19.7495 72.4695 19.1346V17.0707C72.3732 17.1841 72.1646 17.2895 71.8427 17.3813C71.4781 17.4834 71.1075 17.5632 70.7332 17.6204C70.4 17.6737 70.0736 17.7213 69.7562 17.7632L68.5616 17.9072C68.0045 17.9776 67.4554 18.1009 66.9217 18.2755C66.456 18.4192 66.0347 18.6794 65.6976 19.0315C65.3894 19.3654 65.2348 19.8188 65.2341 20.3915C65.2341 21.1758 65.5257 21.767 66.109 22.1652C66.6924 22.5634 67.4336 22.7651 68.3327 22.7704ZM67.9927 24.7969C67.1192 24.8089 66.2538 24.6278 65.4585 24.2665C64.7238 23.9331 64.0978 23.3997 63.6519 22.7274C63.2054 22.0541 62.9821 21.2396 62.9821 20.2838C62.9821 19.4414 63.1479 18.7576 63.4796 18.2324C63.8052 17.7111 64.2616 17.284 64.8034 16.9937C65.3832 16.685 66.003 16.4585 66.6451 16.3205C67.3168 16.1693 67.9942 16.0496 68.6772 15.9612L69.8899 15.8093L70.4022 15.7492L70.8556 15.6982C71.4132 15.6378 71.8212 15.5343 72.0796 15.3877C72.338 15.2411 72.4672 14.9861 72.4672 14.6227V14.5467C72.4672 13.6023 72.2107 12.869 71.6977 12.3469C71.1846 11.8248 70.4071 11.5626 69.3652 11.5603C68.2885 11.5603 67.4438 11.7961 66.831 12.2675C66.2182 12.739 65.7879 13.2437 65.5401 13.7817L63.398 13.0167C63.7811 12.1236 64.2926 11.427 64.9326 10.9268C65.5546 10.4356 66.271 10.0776 67.0373 9.87501C67.7718 9.67779 68.5287 9.57646 69.2893 9.57353C69.8381 9.58251 70.3851 9.64054 70.9236 9.74694C71.556 9.86349 72.162 10.0939 72.712 10.427C73.323 10.8078 73.8202 11.3461 74.1514 11.9853C74.533 12.6797 74.7241 13.6106 74.7249 14.7779V24.4557H72.4638V22.4644H72.3505C72.1521 22.8435 71.8938 23.1879 71.5855 23.4845C71.1751 23.8836 70.6908 24.1989 70.1597 24.4127C69.5666 24.6696 68.8427 24.7976 67.9882 24.7969H67.9927ZM58.987 9.76507C58.9431 9.30713 58.7944 8.86542 58.5525 8.47413C58.3106 8.08284 57.9819 7.75246 57.5918 7.50854C56.7758 6.97284 55.7746 6.70499 54.5884 6.70499C53.288 6.70499 52.2427 7.01251 51.4524 7.62755C50.662 8.24258 50.2669 9.01894 50.2669 9.95661C50.2669 10.657 50.4818 11.2237 50.9118 11.6567C51.3487 12.0913 51.8692 12.4329 52.4418 12.6608C52.92 12.858 53.4089 13.0283 53.9061 13.1708L56.0425 13.7466C56.6205 13.9023 57.1902 14.0872 57.7493 14.3008C58.3898 14.5435 58.9968 14.8664 59.5559 15.2619C60.1383 15.6716 60.626 16.2015 60.9862 16.8157C61.364 17.4466 61.5529 18.2211 61.5529 19.1391C61.5645 20.1561 61.2768 21.1541 60.7256 22.0088C60.1732 22.8619 59.3701 23.5419 58.316 24.0489C57.262 24.5559 55.982 24.8075 54.4762 24.8037C52.3727 24.8037 50.7025 24.3065 49.4656 23.3122C48.2287 22.3178 47.5528 21.0175 47.438 19.4111H49.8861C49.9495 20.1501 50.2 20.7602 50.6375 21.2415C51.0915 21.7348 51.6643 22.1035 52.3013 22.3126C53.0015 22.5502 53.7368 22.6682 54.4762 22.6616C55.31 22.6739 56.138 22.5218 56.9129 22.214C57.582 21.9541 58.1718 21.5244 58.6243 20.9673C59.0446 20.4361 59.2677 19.7756 59.2556 19.0983C59.2556 18.4478 59.0739 17.9189 58.7104 17.5116C58.311 17.0788 57.8211 16.7395 57.2756 16.5177C56.7328 16.2855 56.1764 16.0864 55.6096 15.9215L52.9439 15.1599C51.4138 14.7194 50.2026 14.0911 49.3103 13.2751C48.418 12.4591 47.9718 11.3911 47.9718 10.0711C47.9506 9.04177 48.2644 8.03344 48.866 7.198C49.4862 6.35876 50.3176 5.69869 51.2756 5.28488C52.3439 4.81845 53.4999 4.58656 54.6655 4.60486C55.928 4.60486 57.0501 4.82964 58.0316 5.27921C58.9555 5.68265 59.7606 6.31637 60.3697 7.1198C60.9405 7.88666 61.2575 8.81268 61.2764 9.76847L58.987 9.76507Z" fill="white"/>
<path d="M128.547 11.6011C127.686 11.6011 126.94 11.8017 126.309 12.203C125.685 12.5967 125.172 13.1427 124.817 13.7897C124.453 14.4458 124.239 15.1748 124.192 15.9238H132.558C132.558 14.6809 132.195 13.6495 131.468 12.8297C130.741 12.0099 129.768 11.6004 128.547 11.6011ZM128.547 9.57355C129.319 9.57469 130.085 9.70415 130.814 9.95662C131.574 10.2193 132.27 10.6412 132.854 11.1943C133.466 11.7655 133.954 12.5211 134.317 13.461C134.681 14.4009 134.862 15.5547 134.862 16.9223V17.8788H124.192C124.243 19.4459 124.688 20.6477 125.526 21.4841C126.364 22.3205 127.446 22.7361 128.772 22.7308C129.658 22.7308 130.42 22.5396 131.058 22.1573C131.705 21.7616 132.195 21.153 132.444 20.4357L134.624 21.0477C134.28 22.1569 133.591 23.0527 132.558 23.7349C131.525 24.4172 130.263 24.7572 128.772 24.755C127.357 24.755 126.137 24.4407 125.114 23.812C124.087 23.1806 123.267 22.2637 122.752 21.1735C122.201 20.0402 121.925 18.7221 121.925 17.2192C121.925 15.7164 122.201 14.3888 122.752 13.2366C123.258 12.1388 124.062 11.2048 125.071 10.5403C126.062 9.89656 127.221 9.5743 128.547 9.57355Z" fill="white"/>
<path fill-rule="evenodd" clip-rule="evenodd" d="M57.7766 29.2408C57.6809 29.2394 57.5859 29.2569 57.497 29.2923C57.4082 29.3277 57.3271 29.3803 57.2586 29.4471C57.1901 29.5098 57.1353 29.5862 57.0978 29.6713C57.0604 29.7563 57.041 29.8483 57.041 29.9412C57.041 30.0342 57.0604 30.1261 57.0978 30.2112C57.1353 30.2963 57.1901 30.3726 57.2586 30.4354C57.3988 30.5679 57.5843 30.6417 57.7772 30.6417C57.97 30.6417 58.1555 30.5679 58.2957 30.4354C58.3639 30.3724 58.4184 30.296 58.4557 30.211C58.493 30.1259 58.5122 30.0341 58.5122 29.9412C58.5122 29.8484 58.493 29.7565 58.4557 29.6715C58.4184 29.5864 58.3639 29.51 58.2957 29.4471C58.227 29.3802 58.1458 29.3275 58.0568 29.2921C57.9677 29.2567 57.8724 29.2393 57.7766 29.2408ZM51.5034 37.0678H51.6088L54.2699 29.523H55.4078L52.1165 38.4868H50.9956L47.7043 29.523H48.8422L51.5034 37.0678ZM57.2563 31.7637H58.2888V38.4868H57.2563V31.7637ZM62.2012 31.9688C62.5247 31.7608 62.9024 31.6527 63.2869 31.6583C63.3158 31.6583 63.3475 31.6575 63.3819 31.6566H63.3819H63.3819H63.3819H63.3819H63.382H63.382H63.382H63.3821H63.3821C63.4381 31.6551 63.5013 31.6535 63.5714 31.6549C63.6848 31.6572 63.7709 31.6617 63.8298 31.6674V32.718C63.7947 32.7089 63.7154 32.6953 63.5907 32.6761C63.4612 32.6572 63.3305 32.6477 63.1997 32.6477C62.7513 32.6324 62.3145 32.7926 61.9824 33.0943C61.8251 33.2373 61.7007 33.4126 61.6175 33.6082C61.5344 33.8038 61.4945 34.0152 61.5008 34.2276V38.4857H60.4683V31.7637H61.4656V32.7781H61.5359C61.6617 32.442 61.8958 32.1573 62.2012 31.9688ZM68.2738 37.5563C68.1812 37.5705 68.0875 37.5769 67.9938 37.5756C67.8472 37.5767 67.7014 37.5521 67.5632 37.5031C67.4211 37.4502 67.3029 37.348 67.2299 37.2152C67.131 37.0116 67.0865 36.786 67.1007 36.5601V32.6409H68.5367V31.766H67.1007V30.1475H66.0682V31.7592H65.0482V32.6409H66.0682V36.8423C66.0547 37.1871 66.1503 37.5274 66.3414 37.8147C66.516 38.0647 66.7548 38.2628 67.0327 38.3882C67.3014 38.511 67.5931 38.5751 67.8884 38.5764C68.0485 38.5791 68.2084 38.565 68.3656 38.5344C68.4652 38.514 68.5633 38.4867 68.6591 38.4528L68.4494 37.5257L68.2738 37.5563ZM74.3464 36.7743C74.5399 36.464 74.6351 36.1026 74.6195 35.7372L74.6138 31.7637H75.6475V38.4868H74.6138V37.3534H74.5436C74.3797 37.7029 74.1263 38.0028 73.8092 38.2227C73.437 38.4722 72.9954 38.5972 72.5477 38.5797C72.2589 38.5891 71.9712 38.5382 71.7031 38.4302C71.435 38.3223 71.1923 38.1598 70.9905 37.953C70.5817 37.5359 70.3773 36.8986 70.3773 36.041V31.7637H71.4098V35.9651C71.4098 36.4547 71.5477 36.8457 71.8235 37.1381C71.9587 37.2817 72.1229 37.395 72.3052 37.4704C72.4875 37.5458 72.6837 37.5817 72.8809 37.5756C73.1545 37.5714 73.4233 37.5039 73.6663 37.3784C73.9431 37.2416 74.1779 37.033 74.3464 36.7743ZM81.8197 32.0652C81.5681 31.9124 81.2908 31.8064 81.0014 31.7524C80.7552 31.7047 80.5053 31.6789 80.2546 31.6753C79.9066 31.6768 79.5603 31.7232 79.2243 31.8136C78.8736 31.9064 78.5457 32.0704 78.261 32.2952C77.9494 32.5494 77.7076 32.8785 77.5583 33.2518L78.5398 33.602C78.678 33.327 78.8805 33.0894 79.1302 32.9095C79.4106 32.6942 79.7971 32.5865 80.2897 32.5865C80.7657 32.5865 81.1212 32.7059 81.3562 32.9447C81.5912 33.1834 81.7087 33.5189 81.7087 33.9511V33.9862C81.7149 34.0554 81.7016 34.125 81.6701 34.1869C81.6386 34.2489 81.5903 34.3007 81.5307 34.3364C81.355 34.4196 81.1649 34.468 80.9708 34.4792C80.7147 34.5064 80.3838 34.5472 79.9746 34.5994C79.6629 34.6402 79.3524 34.6946 79.0452 34.7637C78.7512 34.8267 78.4674 34.9304 78.202 35.072C77.9532 35.2046 77.7434 35.4 77.5934 35.6387C77.4306 35.9242 77.352 36.2499 77.3667 36.5782C77.3508 36.9607 77.4505 37.339 77.6526 37.6641C77.8547 37.9891 78.1501 38.2458 78.5001 38.4007C78.8636 38.5677 79.2595 38.6521 79.6595 38.6478C79.9992 38.6573 80.3373 38.5979 80.6535 38.4732C80.8962 38.3752 81.1176 38.2308 81.3052 38.0482C81.4465 37.9121 81.5647 37.7541 81.6554 37.5801H81.7087V38.4868H82.7412V34.0565C82.7412 33.5223 82.6535 33.0962 82.4782 32.7781C82.3268 32.4855 82.0993 32.2393 81.8197 32.0652ZM81.7064 36.0523C81.706 36.334 81.6309 36.6105 81.4888 36.8536C81.337 37.1152 81.1163 37.3301 80.8507 37.4747C80.5325 37.6445 80.1753 37.7278 79.8148 37.7161C79.4548 37.7308 79.0989 37.6351 78.7948 37.4418C78.6654 37.3515 78.5615 37.2294 78.493 37.0873C78.4246 36.9452 78.3938 36.7878 78.4038 36.6304C78.3912 36.403 78.4671 36.1796 78.6157 36.007C78.7698 35.8454 78.9631 35.7264 79.1767 35.6613C79.4207 35.5807 79.672 35.5241 79.927 35.4925L80.3622 35.4381C80.5413 35.4154 80.7272 35.3893 80.9187 35.3587C81.0901 35.3314 81.2597 35.2936 81.4264 35.2454C81.533 35.2247 81.632 35.1758 81.7132 35.1037L81.7064 36.0523ZM84.6202 29.523H85.6527V38.4868H84.6202V29.523ZM93.507 37.4532L95.521 35.2998C96.034 34.7475 96.436 34.2798 96.7269 33.8967C96.9794 33.5787 97.1854 33.2265 97.3389 32.8506C97.4561 32.5425 97.5164 32.2157 97.5168 31.8861C97.5234 31.4435 97.4056 31.008 97.1768 30.6292C96.944 30.2509 96.6146 29.9414 96.2225 29.7327C95.7929 29.5048 95.3124 29.3901 94.8262 29.3995C94.3352 29.392 93.85 29.5065 93.414 29.7327C93.005 29.945 92.6623 30.2657 92.4235 30.6598C92.1752 31.078 92.0491 31.5574 92.0597 32.0436H93.0922C93.0922 31.5329 93.2455 31.1222 93.5523 30.8117C93.8591 30.5011 94.272 30.3455 94.7911 30.3447C95.2357 30.3302 95.6704 30.4781 96.014 30.7607C96.1765 30.8983 96.3054 31.0712 96.3908 31.2663C96.4763 31.4613 96.516 31.6733 96.507 31.8861C96.5074 32.1565 96.4515 32.424 96.3427 32.6715C96.2099 32.9561 96.0416 33.2227 95.8417 33.4649C95.615 33.7459 95.329 34.0761 94.9837 34.4554L92.0245 37.6946V38.4823H97.671V37.52H93.507V37.4532ZM101.389 29.7023C101.791 29.4897 102.242 29.3853 102.696 29.3995C103.151 29.3848 103.601 29.4886 104.003 29.7006C104.405 29.9127 104.746 30.2256 104.99 30.6088C105.539 31.4074 105.813 32.5382 105.813 34.001C105.813 35.4638 105.541 36.5971 104.997 37.4011C104.452 38.2057 103.685 38.6081 102.696 38.6081C101.707 38.6081 100.941 38.2069 100.397 37.4045C99.852 36.5915 99.5796 35.4581 99.5796 34.0044C99.5796 32.5506 99.8539 31.4199 100.402 30.6122C100.647 30.2285 100.987 29.9149 101.389 29.7023ZM102.696 37.6459C103.351 37.6459 103.858 37.3308 104.22 36.7006C104.582 36.0675 104.762 35.1687 104.762 34.0044C104.762 32.84 104.58 31.939 104.215 31.3013C103.85 30.6628 103.344 30.344 102.696 30.3447C102.049 30.3455 101.543 30.6643 101.178 31.3013C100.812 31.936 100.629 32.837 100.63 34.0044C100.631 35.1717 100.813 36.0705 101.175 36.7006C101.535 37.3308 102.042 37.6459 102.696 37.6459ZM109.291 37.4532L111.304 35.2998C111.818 34.7474 112.22 34.2797 112.51 33.8967C112.763 33.5787 112.969 33.2265 113.123 32.8506C113.24 32.5424 113.3 32.2156 113.3 31.8861C113.307 31.4435 113.189 31.008 112.96 30.6292C112.727 30.2507 112.398 29.9412 112.006 29.7327C111.576 29.5046 111.096 29.39 110.609 29.3995C110.119 29.3919 109.634 29.5064 109.198 29.7327C108.789 29.9449 108.446 30.2656 108.207 30.6598C107.958 31.0779 107.832 31.5574 107.843 32.0436H108.877C108.877 31.5328 109.028 31.1222 109.33 30.8116C109.632 30.5011 110.045 30.3455 110.569 30.3447C111.014 30.3305 111.449 30.4783 111.793 30.7606C111.955 30.8985 112.083 31.0715 112.169 31.2665C112.254 31.4615 112.294 31.6734 112.285 31.8861C112.285 32.1565 112.229 32.4241 112.12 32.6715C111.988 32.9563 111.82 33.2229 111.619 33.4649C111.393 33.7459 111.107 34.0761 110.761 34.4554L107.803 37.6946V38.4823H113.458V37.52H109.291V37.4532ZM117.173 29.7021C117.575 29.4895 118.026 29.3852 118.481 29.3995C118.935 29.3848 119.385 29.4886 119.787 29.7006C120.189 29.9126 120.529 30.2256 120.773 30.6088C121.322 31.4074 121.596 32.5382 121.596 34.001C121.596 35.4638 121.324 36.5971 120.78 37.4011C120.237 38.2057 119.47 38.6081 118.481 38.6081C117.491 38.6081 116.724 38.2069 116.18 37.4045C115.636 36.5915 115.364 35.4581 115.364 34.0044C115.364 32.5506 115.638 31.4199 116.187 30.6122C116.431 30.2284 116.771 29.9148 117.173 29.7021ZM118.481 37.6459C119.133 37.6459 119.641 37.3308 120.004 36.7006C120.366 36.0675 120.547 35.1687 120.547 34.0044C120.547 32.84 120.364 31.939 119.999 31.3013C119.635 30.6628 119.129 30.344 118.481 30.3447C117.832 30.3455 117.326 30.6643 116.962 31.3013C116.598 31.936 116.415 32.837 116.415 34.0044C116.414 35.1717 116.595 36.0705 116.96 36.7006C117.321 37.3308 117.828 37.6459 118.481 37.6459Z" fill="url(#paint0_linear)"/>
<defs>
<linearGradient id="paint0_linear" x1="48.7923" y1="36.0546" x2="124.007" y2="36.0546" gradientUnits="userSpaceOnUse">
<stop stop-color="#FFD03D"/>
<stop offset="0.08" stop-color="#F9A537"/>
<stop offset="0.13" stop-color="#F68A33"/>
<stop offset="0.16" stop-color="#F58032"/>
<stop offset="0.34" stop-color="#E44A5A"/>
<stop offset="0.38" stop-color="#D14F71"/>
<stop offset="0.46" stop-color="#A75AA2"/>
<stop offset="0.53" stop-color="#8E60C1"/>
<stop offset="0.57" stop-color="#8463CC"/>
<stop offset="0.7" stop-color="#5673E1"/>
<stop offset="0.79" stop-color="#3380F1"/>
<stop offset="0.85" stop-color="#50A5D3"/>
<stop offset="0.91" stop-color="#6DC9B6"/>
<stop offset="0.97" stop-color="#7FE0A4"/>
<stop offset="1" stop-color="#85E89D"/>
</linearGradient>
</defs>
</svg>
